<mxfile host="app.diagrams.net" modified="2021-10-04T08:16:43.747Z" agent="5.0 (X11)" etag="jtj8m6whwAeswC-E1p-s" version="14.8.1" type="github">
  <diagram id="KU8UzdQ1xzfg_n8I3WLU" name="Page-1">
    <mxGraphModel dx="1422" dy="756" grid="1" gridSize="10" guides="1" tooltips="1" connect="1" arrows="1" fold="1" page="1" pageScale="1" pageWidth="850" pageHeight="1100" math="0" shadow="0">
      <root>
        <mxCell id="0" />
        <mxCell id="1" parent="0" />
        <mxCell id="dQ9hWwUdrEHZIV1AniP0-3" style="edgeStyle=orthogonalEdgeStyle;orthogonalLoop=1;jettySize=auto;html=1;exitX=1;exitY=0;exitDx=0;exitDy=0;entryX=0;entryY=0;entryDx=0;entryDy=0;curved=1;" edge="1" parent="1" source="dQ9hWwUdrEHZIV1AniP0-1" target="dQ9hWwUdrEHZIV1AniP0-2">
          <mxGeometry relative="1" as="geometry">
            <Array as="points">
              <mxPoint x="60" y="200" />
              <mxPoint x="168" y="200" />
            </Array>
          </mxGeometry>
        </mxCell>
        <mxCell id="dQ9hWwUdrEHZIV1AniP0-1" value="&lt;div&gt;Created&lt;/div&gt;" style="ellipse;whiteSpace=wrap;html=1;" vertex="1" parent="1">
          <mxGeometry x="9" y="220" width="60" height="60" as="geometry" />
        </mxCell>
        <mxCell id="dQ9hWwUdrEHZIV1AniP0-6" style="edgeStyle=orthogonalEdgeStyle;curved=1;orthogonalLoop=1;jettySize=auto;html=1;exitX=0;exitY=1;exitDx=0;exitDy=0;entryX=0.5;entryY=0;entryDx=0;entryDy=0;" edge="1" parent="1" source="dQ9hWwUdrEHZIV1AniP0-2" target="dQ9hWwUdrEHZIV1AniP0-5">
          <mxGeometry relative="1" as="geometry" />
        </mxCell>
        <mxCell id="dQ9hWwUdrEHZIV1AniP0-7" value="verified AND Online Transaction created" style="edgeLabel;html=1;align=center;verticalAlign=middle;resizable=0;points=[];" vertex="1" connectable="0" parent="dQ9hWwUdrEHZIV1AniP0-6">
          <mxGeometry x="0.1133" y="14" relative="1" as="geometry">
            <mxPoint x="-24" y="11" as="offset" />
          </mxGeometry>
        </mxCell>
        <mxCell id="dQ9hWwUdrEHZIV1AniP0-12" style="edgeStyle=orthogonalEdgeStyle;curved=1;orthogonalLoop=1;jettySize=auto;html=1;exitX=1;exitY=0.5;exitDx=0;exitDy=0;entryX=0;entryY=0;entryDx=0;entryDy=0;" edge="1" parent="1" source="dQ9hWwUdrEHZIV1AniP0-2" target="dQ9hWwUdrEHZIV1AniP0-11">
          <mxGeometry relative="1" as="geometry">
            <Array as="points">
              <mxPoint x="219" y="230" />
              <mxPoint x="478" y="230" />
            </Array>
          </mxGeometry>
        </mxCell>
        <mxCell id="dQ9hWwUdrEHZIV1AniP0-16" style="edgeStyle=orthogonalEdgeStyle;curved=1;orthogonalLoop=1;jettySize=auto;html=1;exitX=1;exitY=1;exitDx=0;exitDy=0;entryX=0;entryY=0.5;entryDx=0;entryDy=0;" edge="1" parent="1" source="dQ9hWwUdrEHZIV1AniP0-2" target="dQ9hWwUdrEHZIV1AniP0-11">
          <mxGeometry relative="1" as="geometry">
            <Array as="points">
              <mxPoint x="210" y="320" />
            </Array>
          </mxGeometry>
        </mxCell>
        <mxCell id="dQ9hWwUdrEHZIV1AniP0-2" value="Need&lt;br&gt;Verified" style="ellipse;whiteSpace=wrap;html=1;fillColor=#d5e8d4;strokeColor=#82b366;" vertex="1" parent="1">
          <mxGeometry x="159" y="220" width="60" height="60" as="geometry" />
        </mxCell>
        <mxCell id="dQ9hWwUdrEHZIV1AniP0-4" value="information received" style="text;html=1;align=center;verticalAlign=middle;resizable=0;points=[];autosize=1;strokeColor=none;" vertex="1" parent="1">
          <mxGeometry x="59" y="180" width="120" height="20" as="geometry" />
        </mxCell>
        <mxCell id="dQ9hWwUdrEHZIV1AniP0-5" value="Verified" style="ellipse;whiteSpace=wrap;html=1;" vertex="1" parent="1">
          <mxGeometry x="79" y="350" width="60" height="60" as="geometry" />
        </mxCell>
        <mxCell id="dQ9hWwUdrEHZIV1AniP0-8" style="edgeStyle=orthogonalEdgeStyle;curved=1;orthogonalLoop=1;jettySize=auto;html=1;exitX=1;exitY=0;exitDx=0;exitDy=0;entryX=0.5;entryY=0;entryDx=0;entryDy=0;" edge="1" parent="1" source="dQ9hWwUdrEHZIV1AniP0-2" target="dQ9hWwUdrEHZIV1AniP0-2">
          <mxGeometry relative="1" as="geometry">
            <Array as="points">
              <mxPoint x="210" y="160" />
              <mxPoint x="189" y="160" />
            </Array>
          </mxGeometry>
        </mxCell>
        <mxCell id="dQ9hWwUdrEHZIV1AniP0-10" value="Verified exception AND tryCount &amp;lt; MaxTryCount&lt;br&gt;tryCount++" style="edgeLabel;html=1;align=center;verticalAlign=middle;resizable=0;points=[];" vertex="1" connectable="0" parent="dQ9hWwUdrEHZIV1AniP0-8">
          <mxGeometry x="0.3333" y="8" relative="1" as="geometry">
            <mxPoint x="12" y="-20" as="offset" />
          </mxGeometry>
        </mxCell>
        <mxCell id="dQ9hWwUdrEHZIV1AniP0-18" style="edgeStyle=orthogonalEdgeStyle;curved=1;orthogonalLoop=1;jettySize=auto;html=1;exitX=0.5;exitY=1;exitDx=0;exitDy=0;entryX=0.017;entryY=0.367;entryDx=0;entryDy=0;entryPerimeter=0;" edge="1" parent="1" source="dQ9hWwUdrEHZIV1AniP0-11" target="dQ9hWwUdrEHZIV1AniP0-17">
          <mxGeometry relative="1" as="geometry" />
        </mxCell>
        <mxCell id="dQ9hWwUdrEHZIV1AniP0-25" style="edgeStyle=orthogonalEdgeStyle;curved=1;orthogonalLoop=1;jettySize=auto;html=1;exitX=1;exitY=1;exitDx=0;exitDy=0;" edge="1" parent="1" source="dQ9hWwUdrEHZIV1AniP0-11">
          <mxGeometry relative="1" as="geometry">
            <mxPoint x="740" y="420" as="targetPoint" />
            <Array as="points">
              <mxPoint x="520" y="370" />
              <mxPoint x="740" y="370" />
            </Array>
          </mxGeometry>
        </mxCell>
        <mxCell id="dQ9hWwUdrEHZIV1AniP0-11" value="Need&lt;br&gt;Reverse" style="ellipse;whiteSpace=wrap;html=1;fillColor=#d5e8d4;strokeColor=#82b366;" vertex="1" parent="1">
          <mxGeometry x="469" y="290" width="60" height="60" as="geometry" />
        </mxCell>
        <mxCell id="dQ9hWwUdrEHZIV1AniP0-13" value="Verified exception AND tryCount &amp;gt; MaxTryCount&lt;br&gt;tryCount = 0" style="text;html=1;align=center;verticalAlign=middle;resizable=0;points=[];autosize=1;strokeColor=none;" vertex="1" parent="1">
          <mxGeometry x="279" y="200" width="270" height="30" as="geometry" />
        </mxCell>
        <mxCell id="dQ9hWwUdrEHZIV1AniP0-15" value="verified AND Online Transaction Not created&lt;br&gt;tryCount = 0" style="text;html=1;align=center;verticalAlign=middle;resizable=0;points=[];autosize=1;strokeColor=none;" vertex="1" parent="1">
          <mxGeometry x="209" y="330" width="250" height="30" as="geometry" />
        </mxCell>
        <mxCell id="dQ9hWwUdrEHZIV1AniP0-17" value="Reverse" style="ellipse;whiteSpace=wrap;html=1;" vertex="1" parent="1">
          <mxGeometry x="589" y="410" width="60" height="60" as="geometry" />
        </mxCell>
        <mxCell id="dQ9hWwUdrEHZIV1AniP0-19" value="Reversed" style="text;html=1;align=center;verticalAlign=middle;resizable=0;points=[];autosize=1;strokeColor=none;" vertex="1" parent="1">
          <mxGeometry x="449" y="410" width="70" height="20" as="geometry" />
        </mxCell>
        <mxCell id="dQ9hWwUdrEHZIV1AniP0-20" style="edgeStyle=orthogonalEdgeStyle;curved=1;orthogonalLoop=1;jettySize=auto;html=1;exitX=1;exitY=0.5;exitDx=0;exitDy=0;entryX=1;entryY=0;entryDx=0;entryDy=0;" edge="1" parent="1" source="dQ9hWwUdrEHZIV1AniP0-11" target="dQ9hWwUdrEHZIV1AniP0-11">
          <mxGeometry relative="1" as="geometry">
            <Array as="points">
              <mxPoint x="609" y="320" />
              <mxPoint x="609" y="299" />
            </Array>
          </mxGeometry>
        </mxCell>
        <mxCell id="dQ9hWwUdrEHZIV1AniP0-21" value="reverse exception AND tryCount &amp;lt; MaxTryCount&lt;br&gt;tryCount++" style="edgeLabel;html=1;align=center;verticalAlign=middle;resizable=0;points=[];" vertex="1" connectable="0" parent="1">
          <mxGeometry x="659" y="280.0032021684149" as="geometry" />
        </mxCell>
        <mxCell id="dQ9hWwUdrEHZIV1AniP0-22" value="Reverse&lt;br&gt;Failed" style="ellipse;whiteSpace=wrap;html=1;" vertex="1" parent="1">
          <mxGeometry x="710" y="420" width="60" height="60" as="geometry" />
        </mxCell>
        <mxCell id="dQ9hWwUdrEHZIV1AniP0-24" value="reverse exception AND tryCount &amp;gt; MaxTryCount" style="edgeLabel;html=1;align=center;verticalAlign=middle;resizable=0;points=[];" vertex="1" connectable="0" parent="1">
          <mxGeometry x="710" y="350.0032021684149" as="geometry" />
        </mxCell>
      </root>
    </mxGraphModel>
  </diagram>
</mxfile>
